<svg width="55" height="70" viewBox="0 0 55 70" fill="none" xmlns="http://www.w3.org/2000/svg">
<path d="M48.125 8.75H36.6667C36.6667 3.92383 32.556 0 27.5 0C22.444 0 18.3333 3.92383 18.3333 8.75H6.875C3.07943 8.75 0 11.6895 0 15.3125V63.4375C0 67.0605 3.07943 70 6.875 70H48.125C51.9206 70 55 67.0605 55 63.4375V15.3125C55 11.6895 51.9206 8.75 48.125 8.75ZM27.5 5.46875C29.4049 5.46875 30.9375 6.93164 30.9375 8.75C30.9375 10.5684 29.4049 12.0312 27.5 12.0312C25.5951 12.0312 24.0625 10.5684 24.0625 8.75C24.0625 6.93164 25.5951 5.46875 27.5 5.46875ZM44.8594 37.1602L24.3776 56.5469C23.7044 57.1895 22.6159 57.1758 21.9427 56.5332L10.112 45.1445C9.4388 44.502 9.45312 43.4629 10.1263 42.8203L14.194 38.9648C14.8672 38.3223 15.9557 38.3359 16.6289 38.9785L23.2174 45.3223L38.3997 30.9395C39.0729 30.2969 40.1615 30.3105 40.8346 30.9531L44.8737 34.8359C45.5469 35.4922 45.5326 36.5176 44.8594 37.1602Z" fill="#35D78E"/>
</svg>
